<svg width="37" height="34" viewBox="0 0 37 34" fill="none" xmlns="http://www.w3.org/2000/svg">
<path d="M1.50613 10.8365L1.50418 10.8072C1.42181 8.71846 2.15197 6.66872 3.5618 5.05328L3.85281 4.7359C5.4465 3.08284 7.67035 2.08536 10.0471 1.97711C11.4219 2.00488 12.7642 2.35349 13.9573 2.98785L14.1966 3.12067C15.4611 3.84627 16.4954 4.87314 17.2005 6.09137L18.4983 8.33453L19.7962 6.09137C20.4572 4.94913 21.4074 3.97454 22.5657 3.25934L22.8001 3.12067C24.0514 2.40268 25.4813 2.00691 26.9485 1.97711C29.1764 2.07835 31.27 2.96068 32.8362 4.43219L33.1438 4.7359C34.7437 6.39543 35.5803 8.57921 35.4925 10.8072L35.4905 10.8365V10.8668C35.4904 12.9568 34.5978 15.2633 33.0774 17.6412C31.5682 20.0017 29.5229 22.3052 27.4134 24.357C24.2501 27.4337 21.0312 29.8611 19.4798 30.9771L18.5481 31.6314L18.4983 31.6646L18.4514 31.6334H18.4524C18.1171 31.4049 13.8007 28.4568 9.58328 24.355C7.47375 22.3034 5.42843 20.0005 3.91922 17.6402C2.39893 15.2626 1.50622 12.9567 1.50613 10.8668V10.8365Z" stroke="#D7113C" stroke-width="3"/>
</svg>
