<svg width="37" height="34" viewBox="0 0 37 34" fill="none" xmlns="http://www.w3.org/2000/svg">
<path d="M26.9757 0.476135C25.2405 0.501949 23.543 0.965223 22.0548 1.81917C20.5666 2.67312 19.3404 3.88751 18.5 5.3397C17.6596 3.88751 16.4334 2.67312 14.9452 1.81917C13.457 0.965223 11.7595 0.501949 10.0243 0.476135C7.25799 0.591078 4.65172 1.7484 2.77484 3.69527C0.897968 5.64214 -0.0969463 8.22029 0.00746036 10.8665C0.00746036 20.8515 16.8911 32.384 17.6093 32.8733L18.5 33.4761L19.3907 32.8733C20.1089 32.387 36.9925 20.8515 36.9925 10.8665C37.0969 8.22029 36.102 5.64214 34.2252 3.69527C32.3483 1.7484 29.742 0.591078 26.9757 0.476135Z" fill="#D7113C"/>
</svg>
