<svg width="37" height="34" viewBox="0 0 37 34" fill="none" xmlns="http://www.w3.org/2000/svg">
<path d="M36.9909 10.8668C36.9905 20.8517 20.1074 32.3872 19.3893 32.8736L18.4987 33.4761L17.608 32.8736C17.495 32.7965 16.9833 32.4443 16.1989 31.8697C16.1041 31.8003 16.0045 31.7288 15.902 31.6529C15.7602 31.5479 15.6121 31.4358 15.4567 31.3189C15.1766 31.1082 14.8743 30.8798 14.5553 30.6324C14.2498 30.3954 13.9283 30.1419 13.5934 29.8736C13.4791 29.7821 13.3629 29.6893 13.2457 29.5943C12.8804 29.2982 12.502 28.9847 12.1129 28.6568C12.0152 28.5744 11.916 28.492 11.817 28.4078C11.651 28.2664 11.484 28.1217 11.3151 27.9752C11.2324 27.9035 11.1493 27.8313 11.0661 27.7584C10.8856 27.6004 10.7049 27.4384 10.5221 27.275C10.44 27.2015 10.3566 27.1287 10.2741 27.0543C10.137 26.9305 9.99987 26.8049 9.86195 26.6783C9.7253 26.5529 9.58801 26.4265 9.45082 26.2984C9.33687 26.192 9.22317 26.0843 9.10902 25.9761C8.95657 25.8317 8.80351 25.6862 8.65101 25.5386C8.51999 25.4119 8.39022 25.2828 8.25941 25.1539C8.11533 25.0118 7.97032 24.8697 7.82679 24.7252C7.71674 24.6143 7.60823 24.5015 7.49867 24.3892C7.34404 24.2308 7.1891 24.0718 7.03578 23.9107C6.92162 23.7907 6.80918 23.6688 6.69593 23.5474C6.55184 23.3929 6.40758 23.2383 6.26527 23.0816C6.05484 22.8499 5.8459 22.6166 5.64027 22.3804C5.61253 22.3486 5.5849 22.3167 5.55726 22.2847C5.47943 22.1948 5.40185 22.1047 5.32484 22.0142C5.25385 21.9308 5.18317 21.8472 5.11293 21.7632C5.06336 21.704 5.01367 21.645 4.96449 21.5855C4.8944 21.5008 4.82476 21.4158 4.7555 21.3306C4.70217 21.265 4.64914 21.1992 4.59632 21.1334C4.5223 21.041 4.44955 20.9479 4.3766 20.855C4.33733 20.8051 4.29737 20.7557 4.25843 20.7056C4.1931 20.6216 4.12849 20.5371 4.0641 20.4527C4.00611 20.3767 3.94844 20.3005 3.89125 20.2242C3.83633 20.1509 3.78231 20.077 3.72816 20.0035C3.67199 19.9272 3.61648 19.8506 3.56117 19.774C3.49779 19.6862 3.4349 19.5984 3.37269 19.5103C3.33127 19.4517 3.28956 19.3933 3.24867 19.3345C3.19563 19.2583 3.14355 19.1815 3.09144 19.105C3.02832 19.0124 2.96566 18.9197 2.90394 18.8267C2.86008 18.7606 2.81621 18.6947 2.77308 18.6285C2.72841 18.5599 2.68413 18.4912 2.64027 18.4224C2.56942 18.3113 2.49994 18.1999 2.43129 18.0884C2.40343 18.0432 2.37576 17.998 2.34828 17.9527C2.27713 17.8355 2.20788 17.7177 2.13929 17.6002C2.11743 17.5627 2.09545 17.5254 2.07386 17.4879C2.00106 17.3614 1.92968 17.2348 1.86 17.108C1.84433 17.0795 1.82765 17.0515 1.81214 17.023C1.76367 16.9338 1.7174 16.8438 1.67054 16.7545C1.62713 16.6717 1.58363 16.5893 1.54164 16.5064C1.41591 16.2582 1.29752 16.0093 1.18519 15.7603C1.15738 15.6987 1.12914 15.6374 1.10218 15.5757C1.06414 15.4887 1.02814 15.4011 0.991832 15.314C0.963687 15.2465 0.934921 15.1794 0.907848 15.1119C0.882713 15.0491 0.858802 14.9861 0.834606 14.9234C0.796535 14.8247 0.758972 14.7262 0.723277 14.6275C0.69392 14.5463 0.667007 14.4646 0.639293 14.3834C0.614215 14.3099 0.587802 14.2371 0.564098 14.1636C0.53535 14.0745 0.508754 13.9851 0.482067 13.8961C0.461257 13.8266 0.440078 13.7575 0.420543 13.688C0.353637 13.4503 0.296134 13.2124 0.244762 12.9752C0.218009 12.8516 0.192913 12.7284 0.170543 12.605C0.0934405 12.18 0.0400157 11.7567 0.0181994 11.3355L0.00648072 10.8668C0.000239879 10.7086 -0.000946485 10.5507 0.000621362 10.3931C0.00159793 10.2946 0.00638919 10.1964 0.010387 10.0982C0.0127369 10.0405 0.0138355 9.98289 0.0172229 9.92535C0.0226322 9.83333 0.0306621 9.74163 0.0387073 9.64996C0.0447765 9.58089 0.0497089 9.51178 0.057262 9.44293C0.0672184 9.3521 0.0808674 9.26184 0.0933949 9.17145C0.101982 9.10953 0.109974 9.04759 0.119762 8.9859C0.134681 8.89179 0.151878 8.79819 0.169567 8.70465C0.182098 8.63844 0.194717 8.57231 0.208629 8.50641C0.22427 8.43227 0.241058 8.35845 0.258434 8.28473C0.278068 8.20148 0.298126 8.11839 0.319957 8.0357C0.341526 7.95397 0.364612 7.87271 0.388317 7.79156C0.405975 7.73116 0.424171 7.67096 0.443004 7.6109C0.471206 7.52091 0.501049 7.43151 0.531871 7.34234C0.553684 7.27929 0.576141 7.21649 0.599254 7.15387C0.631702 7.0659 0.66484 6.97824 0.69984 6.89117C0.721565 6.83716 0.744522 6.78369 0.767223 6.73004C0.805824 6.63877 0.844955 6.54775 0.886364 6.45758C0.910557 6.40493 0.93544 6.35261 0.960582 6.30035C1.00453 6.20896 1.04949 6.11804 1.09632 6.02789C1.12171 5.97906 1.14823 5.93083 1.17445 5.88238C1.22213 5.79427 1.27049 5.7065 1.32093 5.61969C1.35571 5.55988 1.39228 5.50112 1.42836 5.44195C1.47364 5.36765 1.51774 5.29255 1.56507 5.2193C1.60004 5.1652 1.6374 5.11264 1.67347 5.05914C1.99727 4.57877 2.36258 4.1207 2.77308 3.69488C4.64994 1.74805 7.25685 0.591089 10.0231 0.476134C10.7754 0.487342 11.5206 0.581673 12.2448 0.753478C13.1908 0.977888 14.1011 1.33527 14.944 1.81891C15.0803 1.89713 15.2145 1.97887 15.3463 2.06305C15.4738 2.14443 15.5992 2.22823 15.7223 2.315C15.7829 2.35774 15.8425 2.40184 15.902 2.44586C15.9279 2.46499 15.9545 2.48313 15.9801 2.5025C16.0133 2.52754 16.0459 2.55324 16.0787 2.57867C16.1286 2.61732 16.1781 2.65631 16.2272 2.69586C16.2668 2.72782 16.3063 2.76 16.3453 2.79254C16.3766 2.81855 16.4072 2.84526 16.4381 2.87164C16.4915 2.91723 16.545 2.96266 16.5973 3.00934C16.6221 3.03143 16.646 3.05439 16.6705 3.07672C16.7167 3.11878 16.7629 3.16077 16.8082 3.20367C16.8395 3.23328 16.8702 3.26351 16.901 3.29352C16.9426 3.33398 16.9842 3.37442 17.025 3.41559C17.0526 3.44338 17.0799 3.47146 17.1071 3.49957C17.1489 3.54277 17.1901 3.58648 17.2311 3.63043C17.2616 3.66313 17.2919 3.69596 17.3219 3.72906C17.362 3.77332 17.4018 3.81787 17.4411 3.86285C17.4617 3.8865 17.4822 3.91029 17.5026 3.93414C17.6748 4.13549 17.8391 4.34334 17.9938 4.55817C18.0301 4.60866 18.0649 4.66028 18.1002 4.71149C18.241 4.91547 18.3744 5.12463 18.4987 5.33942C19.2865 3.97813 20.4141 2.82626 21.778 1.98395L22.0534 1.81891C23.5414 0.965047 25.2391 0.502033 26.9743 0.476135C29.7404 0.591074 32.3474 1.74814 34.2243 3.69489C36.1011 5.64175 37.0953 8.22059 36.9909 10.8668ZM33.9938 10.7486C34.0652 8.93884 33.3869 7.15012 32.0641 5.77789C30.7581 4.42326 28.9256 3.58544 26.9469 3.47906C25.7398 3.50899 24.5677 3.83548 23.5465 4.42145C22.5059 5.01868 21.6649 5.85825 21.0953 6.84235L18.4987 11.3287L18.4987 29.8326C19.9637 28.7836 23.1983 26.3646 26.3678 23.2818C28.4316 21.2744 30.3896 19.0605 31.8141 16.8326C33.2607 14.57 33.9908 12.5505 33.9909 10.8668L33.9909 10.8072L33.9938 10.7486Z" fill="#D7113C"/>
</svg>
